# Blender 4.2.2 LTS
# www.blender.org
mtllib bug.mtl
o Cube
v 0.671488 1.311027 -0.099903
v 0.773250 -2.205893 1.970762
v 2.619862 1.311027 28.749712
v 3.677722 -2.205893 26.487427
v -0.000000 -2.205893 1.970762
v -0.000000 1.311027 28.749712
v -0.000000 -2.205893 26.487427
v -0.000000 1.311027 -0.099903
v 1.440989 5.433043 20.263412
v 1.366983 0.146004 20.263412
v -0.000000 0.146004 20.263412
v -0.000000 5.433043 20.263412
v 1.366983 0.406257 7.628351
v 1.440989 5.433043 4.338671
v -0.000000 0.406257 7.628351
v -0.000000 5.433043 4.338671
v 3.014698 2.748935 25.789385
v -0.000000 -2.205893 24.316265
v -0.000000 2.748935 25.789385
v 3.677722 -2.205893 24.316265
v 0.866188 -0.102660 0.732435
v 3.045087 -0.102660 27.840349
v -0.000000 -0.102660 0.732435
v -0.000000 -0.102660 27.840349
v 1.411241 2.362441 20.263412
v 1.411241 2.362441 4.338671
v 3.281212 0.757256 25.197241
v 4.996309 1.803865 27.279991
v 3.917544 1.231352 28.303612
v 4.357867 0.668484 28.018017
v 5.279313 1.010865 27.093037
v -0.671488 1.311027 -0.099903
v -0.773251 -2.205893 1.970762
v -2.619862 1.311027 28.749712
v -3.677722 -2.205893 26.487427
v -1.440989 5.433043 20.263412
v -1.366983 0.146004 20.263412
v -1.366983 0.406257 7.628351
v -1.440989 5.433043 4.338671
v -3.014698 2.748935 25.789385
v -3.677722 -2.205893 24.316265
v -0.866188 -0.102660 0.732435
v -3.045088 -0.102660 27.840349
v -1.411241 2.362441 20.263412
v -1.411241 2.362441 4.338671
v -3.281212 0.757256 25.197241
v -4.996310 1.803865 27.279991
v -3.917544 1.231352 28.303612
v -4.357868 0.668484 28.018017
v -5.279314 1.010865 27.093037
vn -0.0000 -1.0000 -0.0000
vn 0.2621 -0.4651 0.8456
vn -0.0000 -0.5074 -0.8617
vn -0.0000 -0.5410 0.8410
vn -0.0000 0.8995 0.4369
vn -0.0000 1.0000 -0.0000
vn 1.0000 -0.0097 -0.0000
vn -0.0000 -0.9998 -0.0206
vn -0.0000 -0.9079 0.4192
vn 0.9845 0.0342 -0.1722
vn -0.0000 0.7328 -0.6805
vn 0.9349 0.2101 -0.2860
vn -0.0000 -0.8649 -0.5019
vn 0.8968 0.2320 -0.3767
vn 0.9944 -0.0829 -0.0661
vn 0.9998 -0.0200 -0.0004
vn 0.9576 0.2880 -0.0000
vn 0.6918 0.0776 0.7179
vn 0.5160 -0.8271 -0.2230
vn 0.6103 0.3815 -0.6943
vn 0.0270 0.8601 0.5095
vn -0.2621 -0.4651 0.8456
vn -1.0000 -0.0097 -0.0000
vn -0.9845 0.0342 -0.1722
vn -0.9605 -0.0093 -0.2781
vn -0.9329 -0.0186 -0.3596
vn -0.9944 -0.0829 -0.0661
vn -0.9997 -0.0226 -0.0000
vn -0.9881 0.0966 0.1197
vn -0.6918 0.0776 0.7179
vn -0.5160 -0.8271 -0.2230
vn -0.6601 0.2939 -0.6913
vn -0.2079 0.8687 0.4497
vn 0.1022 -0.3853 0.9171
vn 0.9867 -0.0096 -0.1622
vn 0.9605 -0.0093 -0.2781
vn 0.9329 -0.0186 -0.3596
vn 0.9899 -0.1275 -0.0625
vn 0.9997 -0.0226 -0.0000
vn 0.9881 0.0966 0.1197
vn 0.6473 0.1248 0.7520
vn 0.2369 -0.9640 -0.1208
vn 0.6601 0.2939 -0.6913
vn 0.2079 0.8687 0.4497
vn -0.1022 -0.3853 0.9171
vn -0.9867 -0.0096 -0.1622
vn -0.9349 0.2101 -0.2860
vn -0.8968 0.2320 -0.3767
vn -0.9899 -0.1275 -0.0625
vn -0.9998 -0.0200 -0.0004
vn -0.9576 0.2880 -0.0000
vn -0.6473 0.1248 0.7520
vn -0.2369 -0.9640 -0.1208
vn -0.6103 0.3815 -0.6943
vn -0.0270 0.8601 0.5095
vt 0.893915 -0.000000
vt 0.931813 0.193527
vt 0.893915 0.193527
vt 0.247073 0.438042
vt 0.178109 0.483952
vt 0.172268 0.415666
vt 0.830392 0.629063
vt 0.865727 0.555792
vt 0.875972 0.629063
vt 0.247073 0.277805
vt 0.112175 0.277805
vt 0.112175 0.436443
vt 0.075827 0.834794
vt 0.151654 0.555611
vt 0.151654 0.834794
vt 0.753098 0.080575
vt 0.595814 0.358880
vt 0.594347 0.081043
vt 0.295519 0.555611
vt 0.223587 0.777412
vt 0.223587 0.555611
vt 0.785808 0.892666
vt 0.826498 0.738073
vt 0.826498 0.892666
vt 0.540097 -0.000000
vt 0.466937 0.015812
vt 0.830392 0.387054
vt 0.906219 0.387054
vt 0.000000 0.353632
vt 0.615171 0.463484
vt 0.511943 0.454930
vt 0.754565 0.121595
vt 0.893915 0.193527
vt 0.754565 0.193527
vt 0.481240 0.359099
vt 0.358365 0.442205
vt 0.493533 0.138605
vt 0.358365 0.037363
vt 0.358365 0.277805
vt 0.358365 0.471332
vt 0.871082 0.738073
vt 0.830392 0.738073
vt 0.467891 0.500000
vt 0.358565 0.480085
vt 0.153545 0.540718
vt 0.207579 0.507123
vt 0.194176 0.555611
vt 0.354485 0.555611
vt 0.354485 0.616648
vt 0.295519 0.565860
vt 0.151654 0.791639
vt 0.188445 0.881809
vt 0.151654 0.896782
vt 0.893915 0.387054
vt 0.178109 0.071658
vt 0.247073 0.117568
vt 0.172268 0.139944
vt 0.795058 0.555792
vt 0.830392 0.555792
vt 0.112175 0.119167
vt 0.000000 0.555611
vt 0.000000 0.834794
vt 0.517116 0.858880
vt 0.359832 0.580575
vt 0.518584 0.581043
vt 0.151654 0.555611
vt 0.867187 0.892666
vt 0.572834 0.500000
vt 0.645993 0.515812
vt 0.000000 0.201978
vt 0.000000 0.277805
vt 0.497759 0.963484
vt 0.358365 0.858412
vt 0.754565 0.265460
vt 0.631691 0.859099
vt 0.600987 0.954930
vt 0.619398 0.638605
vt 0.754565 0.537363
vt 0.358365 0.084278
vt 0.789703 0.738073
vt 0.754565 0.942205
vt 0.645040 1.000000
vt 0.207579 0.048488
vt 0.153545 0.014892
vt 0.194176 -0.000000
vt 0.295519 0.677685
vt 0.295519 0.616648
vt 0.354485 0.626897
vt 0.334962 0.791639
vt 0.298171 0.881809
vt 0.243308 0.777412
vt 0.931813 -0.000000
vt 0.172268 0.277805
vt 0.075827 0.555611
vt 0.754565 0.358412
vt 0.295519 0.777412
vt 0.754565 0.738073
vt 0.929525 0.738073
vt 0.929525 0.847940
vt 0.898431 0.806699
vt 0.243308 0.777412
vt 0.931813 0.387054
vt 0.784812 0.629063
vt 0.151654 0.777412
vt 0.898431 0.738073
vt 0.754565 0.387054
vt 0.893915 0.387054
vt 0.754365 0.980085
vt 0.937314 0.455680
vt 0.906219 0.496921
vt 0.906219 0.387054
vt 0.334962 0.896782
s 0
usemtl Material
f 20/1/1 7/2/1 18/3/1
f 22/4/2 29/5/2 3/6/2
f 23/7/3 1/8/3 21/9/3
f 3/6/4 24/10/4 22/4/4
f 19/11/5 3/6/5 17/12/5
f 16/13/6 9/14/6 14/15/6
f 14/16/7 25/17/7 26/18/7
f 13/19/8 11/20/8 15/21/8
f 2/22/9 15/23/9 5/24/9
f 1/25/10 26/18/10 21/26/10
f 1/8/11 16/27/11 14/28/11
f 9/29/5 19/11/5 17/12/5
f 25/17/12 17/30/12 27/31/12
f 10/32/13 18/33/13 11/34/13
f 10/35/14 27/31/14 20/36/14
f 21/26/15 13/37/15 2/38/15
f 13/37/16 25/17/16 10/35/16
f 22/4/4 7/39/4 4/40/4
f 23/7/3 2/41/3 5/42/3
f 20/36/17 22/43/17 4/44/17
f 28/45/18 30/46/18 31/47/18
f 27/48/19 30/49/19 22/50/19
f 27/51/20 28/52/20 31/53/20
f 17/12/21 29/5/21 28/45/21
f 7/2/1 41/54/1 18/3/1
f 48/55/22 43/56/22 34/57/22
f 23/7/3 32/58/3 8/59/3
f 24/10/4 34/57/4 43/56/4
f 34/57/5 19/11/5 40/60/5
f 36/61/6 16/13/6 39/62/6
f 44/63/23 39/64/23 45/65/23
f 11/20/8 38/66/8 15/21/8
f 15/23/9 33/67/9 5/24/9
f 45/65/24 32/68/24 42/69/24
f 32/58/11 16/27/11 8/59/11
f 36/70/5 19/11/5 12/71/5
f 44/63/25 40/72/25 36/73/25
f 18/33/13 37/74/13 11/34/13
f 37/75/26 46/76/26 44/63/26
f 38/77/27 42/69/27 33/78/27
f 38/77/28 44/63/28 45/65/28
f 7/39/4 43/56/4 35/79/4
f 33/80/3 23/7/3 5/42/3
f 41/81/29 43/82/29 46/76/29
f 49/83/30 47/84/30 50/85/30
f 49/86/31 46/87/31 43/88/31
f 46/89/32 47/90/32 40/91/32
f 40/60/33 48/55/33 34/57/33
f 20/1/1 4/92/1 7/2/1
f 22/4/34 30/46/34 29/5/34
f 23/7/3 8/59/3 1/8/3
f 3/6/4 6/93/4 24/10/4
f 19/11/5 6/93/5 3/6/5
f 16/13/6 12/94/6 9/14/6
f 14/16/7 9/95/7 25/17/7
f 13/19/8 10/96/8 11/20/8
f 2/22/9 13/97/9 15/23/9
f 1/25/35 14/16/35 26/18/35
f 1/8/11 8/59/11 16/27/11
f 9/29/5 12/71/5 19/11/5
f 25/17/36 9/95/36 17/30/36
f 10/32/13 20/1/13 18/33/13
f 10/35/37 25/17/37 27/31/37
f 21/26/38 26/18/38 13/37/38
f 13/37/39 26/18/39 25/17/39
f 22/4/4 24/10/4 7/39/4
f 23/7/3 21/9/3 2/41/3
f 20/36/40 27/31/40 22/43/40
f 28/45/41 29/5/41 30/46/41
f 27/98/42 31/99/42 30/100/42
f 27/51/43 17/101/43 28/52/43
f 17/12/44 3/6/44 29/5/44
f 7/2/1 35/102/1 41/54/1
f 48/55/45 49/83/45 43/56/45
f 23/7/3 42/103/3 32/58/3
f 24/10/4 6/93/4 34/57/4
f 34/57/5 6/93/5 19/11/5
f 36/61/6 12/94/6 16/13/6
f 44/63/23 36/73/23 39/64/23
f 11/20/8 37/104/8 38/66/8
f 15/23/9 38/105/9 33/67/9
f 45/65/46 39/64/46 32/68/46
f 32/58/11 39/106/11 16/27/11
f 36/70/5 40/60/5 19/11/5
f 44/63/47 46/76/47 40/72/47
f 18/33/13 41/107/13 37/74/13
f 37/75/48 41/81/48 46/76/48
f 38/77/49 45/65/49 42/69/49
f 38/77/50 37/75/50 44/63/50
f 7/39/4 24/10/4 43/56/4
f 33/80/3 42/103/3 23/7/3
f 41/81/51 35/108/51 43/82/51
f 49/83/52 48/55/52 47/84/52
f 49/109/53 50/110/53 46/111/53
f 46/89/54 50/112/54 47/90/54
f 40/60/55 47/84/55 48/55/55
