# Blender 4.3.0
# www.blender.org
mtllib collision4.mtl
o Cube
v 0.000000 2.796979 0.000000
v 2.796979 -2.796979 -2.796979
v 2.796979 -2.796979 2.796979
v -2.796979 -2.796979 -2.796979
v -2.796979 -2.796979 2.796979
v 0.017753 -2.796979 -2.796979
v 0.017753 -2.796979 2.796979
v -2.796979 -2.796979 0.000000
v 2.796979 -2.796979 0.000000
v 0.017753 -6.968930 0.000000
vn -0.0000 0.4472 0.8944
vn -0.8944 0.4472 -0.0000
vn 0.6414 -0.4272 0.6373
vn 0.8944 0.4472 -0.0000
vn -0.0000 0.4472 -0.8944
vn -0.0000 -1.0000 -0.0000
vn 0.6414 -0.4272 -0.6373
vn -0.6366 -0.4295 0.6406
vn -0.6366 -0.4295 -0.6406
vt 0.625000 1.000000
vt 0.375000 0.874207
vt 0.375000 0.750000
vt 0.625000 0.250000
vt 0.375000 0.125000
vt 0.375000 0.000000
vt 0.375000 0.625000
vt 0.250793 0.750000
vt 0.250793 0.625000
vt 0.625000 0.750000
vt 0.375000 0.500000
vt 0.625000 0.500000
vt 0.375000 0.375793
vt 0.375000 0.250000
vt 0.125000 0.625000
vt 0.125000 0.750000
vt 0.250793 0.500000
vt 0.125000 0.500000
vt 0.375000 1.000000
s 0
usemtl Material
f 1/1/1 7/2/1 3/3/1
f 1/4/2 8/5/2 5/6/2
f 9/7/3 7/8/3 10/9/3
f 1/10/4 9/7/4 2/11/4
f 1/12/5 6/13/5 4/14/5
f 8/15/6 7/8/6 5/16/6
f 6/17/6 8/15/6 4/18/6
f 6/17/7 9/7/7 10/9/7
f 1/1/1 5/19/1 7/2/1
f 1/4/2 4/14/2 8/5/2
f 9/7/6 3/3/6 7/8/6
f 1/10/4 3/3/4 9/7/4
f 1/12/5 2/11/5 6/13/5
f 8/15/8 10/9/8 7/8/8
f 6/17/9 10/9/9 8/15/9
f 6/17/6 2/11/6 9/7/6
