# Blender 4.3.0
# www.blender.org
mtllib collision1.mtl
o Cube
v 1.000000 4.067575 -1.000000
v 1.000000 -4.067575 -1.000000
v 1.000000 4.067575 1.000000
v 1.000000 -4.067575 1.000000
v -1.000000 4.067575 -1.000000
v -1.000000 -4.067575 -1.000000
v -1.000000 4.067575 1.000000
v -1.000000 -4.067575 1.000000
v 2.138490 2.368372 -2.138490
v -2.138490 2.368372 2.138490
v 2.138490 2.368372 2.138490
v -2.138490 2.368372 -2.138490
v 0.000000 -4.067575 -1.000000
v 0.000000 4.067575 1.000000
v 0.000000 -4.067575 1.000000
v 0.000000 4.067575 -1.000000
v 0.000000 2.368372 -6.608284
v 0.000000 2.368372 5.182326
v -1.000000 -4.067575 0.000000
v 1.000000 4.067575 0.000000
v -1.000000 4.067575 0.000000
v 1.000000 -4.067575 0.000000
v 3.952915 2.368372 0.000000
v -4.269269 2.368372 0.000000
v 0.000000 -4.067575 0.000000
v 0.000000 5.775303 0.000000
vn -0.6533 0.3826 0.6533
vn -0.4722 0.8166 0.3318
vn -0.4191 0.8063 -0.4175
vn -0.0000 -1.0000 -0.0000
vn 0.5544 0.6866 0.4704
vn 0.5183 0.8185 -0.2480
vn -0.0000 -0.1742 -0.9847
vn 0.9089 -0.4170 -0.0000
vn -0.9847 -0.1742 -0.0000
vn -0.0000 -0.1742 0.9847
vn -0.5183 0.8185 -0.2480
vn 0.4722 0.8166 0.3318
vn -0.0000 1.0000 -0.0000
vn 0.5544 0.6866 -0.4704
vn -0.4191 0.8063 0.4175
vn -0.6533 0.3826 -0.6533
vn -0.0000 0.5566 0.8308
vn -0.8308 0.5566 -0.0000
vn 0.4988 0.8667 -0.0000
vn -0.0000 0.5566 -0.8308
vn 0.8443 -0.3520 -0.4040
vn 0.7399 -0.2419 0.6277
vn -0.6665 -0.3386 -0.6641
vn -0.7665 -0.3500 0.5385
vn 0.7665 -0.3500 0.5385
vn -0.8443 -0.3520 -0.4040
vn 0.6533 0.3826 0.6533
vn 0.6533 0.3826 -0.6533
vn -0.6665 -0.3386 0.6641
vn 0.7399 -0.2419 -0.6277
vt 0.251727 0.375544
vt 0.161792 0.387748
vt 0.199737 0.335857
vt 0.227557 0.529825
vt -0.000000 0.602160
vt 0.393998 0.311394
vt 0.419488 0.503426
vt 0.650353 0.170264
vt 0.727588 0.140430
vt 0.698680 0.197545
vt 0.000000 0.183855
vt 0.110773 0.348881
vt 0.009349 0.363591
vt 0.239623 0.285606
vt 0.175791 0.145161
vt 0.458840 -0.000000
vt 0.669772 0.254660
vt 0.484706 0.244281
vt 0.621446 0.227380
vt 0.458840 0.072642
vt 0.679261 0.113149
vt 0.966795 0.180304
vt 0.932807 -0.000000
vt 1.000000 0.125365
vt 0.973897 0.260654
vt 0.790790 0.234976
vt 0.933590 0.235244
vt 0.012450 0.602160
vt 0.047647 0.678088
vt 0.000000 0.678088
vt 0.691398 0.360960
vt 0.718099 0.281941
vt 0.775914 0.167710
vt 0.747007 0.224826
vt 0.149689 0.297810
vt 0.188604 0.246739
vt 0.212811 0.426615
vt 0.290642 0.324473
vt 0.458840 0.557915
vt 0.608344 0.000000
vt 0.775914 0.063345
vt 0.775914 0.456542
vt 0.793981 0.557914
vt 0.793981 0.781415
vt 0.612133 0.587421
vt 0.458840 0.818900
vt 0.612133 0.557915
vt 0.612133 0.922777
s 0
usemtl Material
f 21/1/1 14/2/1 26/3/1
f 14/2/2 10/4/2 18/5/2
f 21/1/3 12/6/3 24/7/3
f 22/8/4 15/9/4 25/10/4
f 23/11/5 3/12/5 11/13/5
f 16/14/6 9/15/6 17/16/6
f 13/17/7 9/18/7 2/19/7
f 23/20/8 4/21/8 22/8/8
f 19/22/9 12/23/9 6/24/9
f 15/25/10 10/26/10 8/27/10
f 11/28/10 15/29/10 4/30/10
f 12/31/7 13/17/7 6/32/7
f 12/6/11 16/14/11 17/16/11
f 25/10/4 8/33/4 19/34/4
f 11/13/12 14/2/12 18/5/12
f 20/35/13 14/2/13 3/12/13
f 16/14/13 20/35/13 1/36/13
f 13/17/4 19/34/4 6/32/4
f 10/26/9 19/22/9 8/27/9
f 2/19/8 23/20/8 22/8/8
f 1/36/14 23/11/14 9/15/14
f 2/19/4 25/10/4 13/17/4
f 10/4/15 21/1/15 24/7/15
f 16/14/16 21/1/16 26/3/16
f 21/1/13 7/37/13 14/2/13
f 14/2/17 7/37/17 10/4/17
f 21/1/18 5/38/18 12/6/18
f 22/8/4 4/21/4 15/9/4
f 23/11/19 20/35/19 3/12/19
f 16/14/20 1/36/20 9/15/20
f 13/17/21 17/39/21 9/18/21
f 23/20/22 11/40/22 4/21/22
f 19/22/23 24/41/23 12/23/23
f 15/25/24 18/42/24 10/26/24
f 11/43/25 18/44/25 15/45/25
f 12/46/26 17/47/26 13/48/26
f 12/6/20 5/38/20 16/14/20
f 25/10/4 15/9/4 8/33/4
f 11/13/17 3/12/17 14/2/17
f 20/35/27 26/3/27 14/2/27
f 16/14/28 26/3/28 20/35/28
f 13/17/4 25/10/4 19/34/4
f 10/26/29 24/41/29 19/22/29
f 2/19/30 9/18/30 23/20/30
f 1/36/19 20/35/19 23/11/19
f 2/19/4 22/8/4 25/10/4
f 10/4/18 7/37/18 21/1/18
f 16/14/13 5/38/13 21/1/13
