# Blender 4.3.0
# www.blender.org
mtllib submarine.mtl
o Cube
v 3.410597 2.194731 -0.950285
v 3.410597 -2.252975 -0.950285
v 3.410597 0.757156 4.848553
v 3.410597 -2.134588 5.282689
v 0.000000 -3.410597 -0.950285
v 0.000000 1.724790 6.049526
v 0.000000 -3.410597 5.282689
v 0.000000 3.410597 -0.950285
v 3.410597 0.000000 -0.950285
v 3.410597 0.000000 5.620364
v 0.000000 0.000000 -0.950285
v 0.000000 0.000000 7.129030
v 1.705299 -3.410597 5.282689
v 1.705299 3.410597 -0.950285
v 1.705299 -3.410597 -0.950285
v 1.705299 1.724790 6.049526
v 1.705299 0.000000 7.129030
v 1.705299 0.000000 -0.950285
v 1.705299 -1.287519 -2.298907
v 0.000000 -1.287519 -2.298907
v 0.000000 0.000000 -2.298907
v 0.000000 1.287519 -2.298907
v 1.705299 1.287519 -2.298907
v 1.705299 0.000000 -2.298907
v 3.410597 -1.422639 -0.950285
v 3.410597 -1.347885 5.407139
v 0.000000 -2.153620 -0.950285
v 0.000000 -2.153620 5.963159
v 1.705299 -2.153620 -0.950285
v 1.705299 -2.153620 5.963159
v 0.000000 -0.813003 -2.298907
v 1.705299 -0.813003 -2.298907
v 3.410597 -0.854370 -0.950285
v 3.410597 -0.809475 5.492311
v 0.000000 -1.293362 -0.950285
v 0.000000 -1.293362 6.428864
v 1.705299 -1.293362 -0.950285
v 1.705299 -1.293362 6.428864
v 0.000000 -0.488251 -2.298907
v 1.705299 -0.488251 -2.298907
v 0.350780 -1.435849 7.109647
v 0.350780 -2.011132 7.133657
v 1.354519 -1.435849 7.109647
v 1.354519 -2.011132 7.133657
v 3.410597 2.226714 3.057564
v 3.410597 -2.144227 4.272133
v 0.000000 -3.410597 4.272133
v 0.000000 3.410597 4.098418
v 3.410597 0.000000 4.582314
v 1.705299 3.410597 4.098418
v 1.705299 -3.410597 4.272133
v 3.410597 -1.353971 4.386451
v 3.410597 -0.813131 4.464687
v 5.648343 -1.773978 5.492311
v 5.648343 -2.312387 5.407139
v 5.648343 -2.318473 4.386451
v 5.648343 -1.777633 4.464687
v 5.859306 -1.773978 5.239138
v 5.930797 -2.312387 5.192842
v 6.787536 -2.318473 4.638041
v 6.721866 -1.777633 4.680567
v 6.440939 -1.773978 6.137310
v 6.512430 -2.312387 6.091014
v 7.369169 -2.318474 5.536213
v 7.303499 -1.777633 5.578739
v -3.410597 2.194731 -0.950285
v -3.410597 -2.252975 -0.950285
v -3.410597 0.757156 4.848553
v -3.410597 -2.134588 5.282689
v -3.410597 0.000000 -0.950285
v -3.410597 0.000000 5.620364
v -1.705299 -3.410597 5.282689
v -1.705299 3.410597 -0.950285
v -1.705299 -3.410597 -0.950285
v -1.705299 1.724790 6.049526
v -1.705299 0.000000 7.129030
v -1.705299 0.000000 -0.950285
v -1.705299 -1.287519 -2.298907
v -1.705299 1.287519 -2.298907
v -1.705299 0.000000 -2.298907
v -3.410597 -1.422639 -0.950285
v -3.410597 -1.347885 5.407139
v -1.705299 -2.153620 -0.950285
v -1.705299 -2.153620 5.963159
v -1.705299 -0.813003 -2.298907
v -3.410597 -0.854370 -0.950285
v -3.410597 -0.809475 5.492311
v -1.705299 -1.293362 -0.950285
v -1.705299 -1.293362 6.428864
v -1.705299 -0.488251 -2.298907
v -0.350780 -1.435849 7.109647
v -0.350780 -2.011132 7.133657
v -1.354519 -1.435849 7.109647
v -1.354519 -2.011132 7.133657
v -3.410597 2.226714 3.057564
v -3.410597 -2.144227 4.272133
v -3.410597 0.000000 4.582314
v -1.705299 3.410597 4.098418
v -1.705299 -3.410597 4.272133
v -3.410597 -1.353971 4.386451
v -3.410597 -0.813131 4.464687
v -5.648343 -1.773978 5.492311
v -5.648343 -2.312387 5.407139
v -5.648343 -2.318473 4.386451
v -5.648343 -1.777633 4.464687
v -5.859306 -1.773978 5.239138
v -5.930797 -2.312387 5.192842
v -6.787536 -2.318473 4.638041
v -6.721866 -1.777633 4.680567
v -6.440939 -1.773978 6.137310
v -6.512430 -2.312387 6.091014
v -7.369169 -2.318474 5.536213
v -7.303499 -1.777633 5.578739
vn 0.5962 -0.8028 -0.0000
vn 1.0000 -0.0000 -0.0000
vn -0.0000 -0.0000 -1.0000
vn -0.0000 0.5305 0.8477
vn -0.0000 0.7567 0.6538
vn -0.0000 -0.4761 0.8794
vn 0.5257 -0.4050 0.7481
vn 0.6629 0.5788 0.4749
vn 0.5267 0.6068 0.5953
vn -0.0000 0.5362 -0.8441
vn -0.0000 -1.0000 -0.0000
vn -1.0000 -0.0000 -0.0000
vn -0.0000 -0.5362 -0.8441
vn 0.3356 -0.4485 0.8284
vn 0.4555 -0.4238 0.7829
vn 0.0616 0.1429 -0.9878
vn 0.9394 -0.1632 0.3014
vn -0.0000 0.0417 0.9991
vn -0.8871 0.0192 0.4611
vn -0.0000 -0.9927 0.1208
vn -0.0000 0.9788 0.2049
vn 0.5805 0.8142 -0.0065
vn -0.0000 1.0000 -0.0000
vn 0.5617 -0.8274 -0.0000
vn 0.2145 0.1024 -0.9713
vn -0.0672 -0.1559 0.9855
vn -0.3958 -0.9183 0.0055
vn 0.3958 0.9183 -0.0033
vn 0.0030 1.0000 -0.0019
vn 0.0045 -1.0000 0.0060
vn 0.0010 1.0000 -0.0050
vn 0.7643 -0.1008 0.6369
vn 0.5436 -0.0000 0.8394
vn -0.8291 -0.1563 0.5369
vn 0.8307 0.1432 -0.5380
vn -0.0050 -1.0000 0.0032
vn -0.5962 -0.8028 -0.0000
vn -0.6580 -0.1177 0.7438
vn -0.6788 0.5557 0.4801
vn -0.5267 0.6068 0.5953
vn -0.3681 -0.1453 0.9184
vn -0.5061 -0.1348 0.8519
vn -0.0616 0.1429 -0.9878
vn -0.9394 -0.1632 0.3014
vn -0.5805 0.8142 -0.0065
vn -0.5617 -0.8274 -0.0000
vn -0.1952 0.1404 -0.9707
vn 0.0672 -0.1559 0.9855
vn 0.3958 -0.9183 0.0055
vn -0.3958 0.9183 -0.0033
vn -0.0030 1.0000 -0.0019
vn -0.0045 -1.0000 0.0060
vn 0.0043 1.0000 -0.0036
vn -0.7643 -0.1008 0.6369
vn -0.5436 -0.0000 0.8394
vn 0.8291 -0.1562 0.5369
vn -0.8307 0.1432 -0.5380
vn 0.0050 -1.0000 0.0032
vn 0.5991 -0.8006 0.0076
vn 0.6580 -0.1177 0.7438
vn 0.6788 0.5557 0.4801
vn 0.6681 0.3947 0.6307
vn 0.3681 -0.1453 0.9184
vn 0.5061 -0.1348 0.8519
vn 0.8871 0.0192 0.4611
vn 0.5703 0.8214 -0.0000
vn 0.5961 -0.8027 0.0167
vn 0.1952 0.1404 -0.9707
vn -0.0018 -1.0000 0.0082
vn -0.0043 1.0000 -0.0036
vn 0.6044 0.0118 0.7966
vn -0.8291 -0.1562 0.5369
vn -0.5991 -0.8006 0.0076
vn -0.5257 -0.4050 0.7481
vn -0.6629 0.5788 0.4749
vn -0.6681 0.3947 0.6307
vn -0.3356 -0.4485 0.8284
vn -0.4555 -0.4238 0.7829
vn -0.5703 0.8214 -0.0000
vn -0.5961 -0.8027 0.0167
vn -0.2145 0.1024 -0.9713
vn 0.0018 -1.0000 0.0082
vn -0.0010 1.0000 -0.0050
vn -0.6044 0.0118 0.7966
vt 0.802167 0.145709
vt 0.835440 0.279570
vt 0.804728 0.280187
vt 0.811594 0.073676
vt 0.819685 0.048145
vt 0.843142 0.073042
vt 0.843142 0.216710
vt 0.951503 0.077256
vt 0.951503 0.216710
vt 0.099841 0.558361
vt 0.205098 0.463115
vt 0.205098 0.568608
vt 0.000000 0.436666
vt 0.000000 0.542159
vt 0.289144 0.460375
vt 0.289144 0.565868
vt 0.951503 0.270997
vt 0.843142 0.298890
vt 0.839250 0.100242
vt 0.808019 0.100992
vt 0.992490 0.114273
vt 0.951503 0.071958
vt 0.992490 0.000000
vt 0.261762 0.664111
vt 0.078288 0.642383
vt 0.165016 0.657129
vt 0.210212 0.663684
vt 0.643450 0.000000
vt 0.535089 0.135342
vt 0.535089 0.000000
vt 0.838001 0.371618
vt 0.807288 0.372235
vt 0.535089 0.217151
vt 0.643450 0.248175
vt 0.535089 0.248175
vt 0.643450 0.217151
vt 0.992490 0.186431
vt 0.951503 0.158235
vt 0.951503 0.142336
vt 0.951503 0.342820
vt 0.992490 0.300504
vt 0.992490 0.343643
vt 0.992490 0.360002
vt 0.951503 0.386154
vt 0.535089 0.433420
vt 0.643450 0.298960
vt 0.643450 0.433420
vt 0.951503 0.414978
vt 0.992490 0.386782
vt 0.951503 0.457093
vt 0.992490 0.157608
vt 0.951503 0.131455
vt 0.535089 0.268810
vt 0.535089 0.298960
vt 0.346150 0.664809
vt 0.345046 0.564045
vt 0.426727 0.561383
vt 0.805641 0.119161
vt 0.832879 0.144769
vt 0.843142 0.353551
vt 0.951503 0.359864
vt 0.843142 0.433420
vt 0.426727 0.455889
vt 0.951503 0.115096
vt 0.992490 0.370883
vt 0.643450 0.268810
vt 0.296050 0.664395
vt 0.606280 0.441644
vt 0.614169 0.586144
vt 0.580776 0.594368
vt 0.951503 0.307105
vt 0.533328 0.812325
vt 0.554083 0.855473
vt 0.518371 0.841028
vt 0.430523 0.901221
vt 0.468737 0.841438
vt 0.466714 0.903499
vt 0.426727 0.812325
vt 0.432546 0.839161
vt 0.554083 0.909673
vt 0.518371 0.933112
vt 0.973649 0.979053
vt 0.953020 0.908414
vt 0.973649 0.884464
vt 0.643450 0.105679
vt 0.643450 0.124719
vt 0.643450 0.152540
vt 0.646011 0.283374
vt 0.648571 0.375422
vt 0.580204 0.490865
vt 0.458926 0.433420
vt 0.580776 0.433971
vt 0.643450 0.077053
vt 0.580204 0.585454
vt 0.426727 0.491420
vt 0.765254 -0.000000
vt 0.630550 0.652364
vt 0.598166 0.664637
vt 0.322668 0.804104
vt 0.611651 0.700454
vt 0.596828 0.855858
vt 0.580776 0.703561
vt 0.987975 0.884464
vt 0.967700 0.787437
vt 0.998752 0.790861
vt 0.998752 0.730978
vt 0.953020 0.741660
vt 0.975138 0.696017
vt 0.627703 0.852751
vt 0.604814 0.870341
vt 0.976635 0.776622
vt 0.356956 0.804388
vt 0.323526 0.815407
vt 0.322606 0.907098
vt 0.354638 0.862564
vt 0.356903 0.911743
vt 0.357683 0.820381
vt 0.320482 0.857589
vt 0.639673 0.688181
vt 0.607289 0.700454
vt 0.626187 0.914780
vt 0.580776 0.904506
vt 0.655191 0.748360
vt 0.685839 0.613873
vt 0.685910 0.748376
vt 0.675004 0.542039
vt 0.666415 0.516671
vt 0.719893 0.467470
vt 0.953020 0.684180
vt 0.844659 0.544727
vt 0.953020 0.467470
vt 0.099841 0.347375
vt 0.205098 0.357621
vt 0.000000 0.331173
vt 0.289144 0.354881
vt 0.844659 0.738467
vt 0.953020 0.766361
vt 0.647873 0.569142
vt 0.679113 0.569280
vt 0.994007 0.539428
vt 0.953020 0.581744
vt 0.953020 0.467470
vt 0.261762 0.242138
vt 0.210212 0.241711
vt 0.078288 0.220410
vt 0.165016 0.235156
vt 0.426727 0.000000
vt 0.809849 0.464283
vt 0.426727 0.248175
vt 0.426727 0.217151
vt 0.953020 0.653901
vt 0.994007 0.625706
vt 0.953020 0.696017
vt 0.426727 0.298960
vt 0.426727 0.433420
vt 0.953020 0.625078
vt 0.994007 0.609807
vt 0.346150 0.242837
vt 0.345046 0.353059
vt 0.296050 0.242422
vt 0.655114 0.613535
vt 0.681846 0.587399
vt 0.844659 0.827335
vt 0.953020 0.821022
vt 0.953020 0.900890
vt 0.426727 0.350396
vt 0.994007 0.598926
vt 0.426727 0.268810
vt 0.704735 1.000000
vt 0.677841 0.857805
vt 0.739125 1.000000
vt 0.844659 0.774575
vt 0.332080 0.382610
vt 0.332080 0.444703
vt 0.295834 0.381513
vt 0.497616 0.812325
vt 0.518371 0.855472
vt 0.482659 0.841028
vt 0.518371 0.909673
vt 0.482659 0.933112
vt 0.554083 0.891949
vt 0.574711 0.812325
vt 0.574711 0.906914
vt 0.843742 0.570746
vt 0.844115 0.589782
vt 0.844659 0.617598
vt 0.651132 0.467470
vt 0.458926 0.811774
vt 0.580204 0.680043
vt 0.580776 0.812326
vt 0.843182 0.542125
vt 0.426727 0.680597
vt 0.841743 0.468604
vt 0.844659 0.748457
vt 0.643450 0.857805
vt 0.677911 0.789589
vt 0.322668 0.105269
vt 0.770000 0.903862
vt 0.755177 0.748457
vt 0.786052 0.751564
vt 0.817148 0.748457
vt 0.801330 0.904729
vt 0.786052 0.751464
vt 0.831627 0.961646
vt 0.786052 0.950446
vt 0.810114 0.915608
vt 0.762014 0.918344
vt 0.739125 0.900755
vt 0.832425 0.901722
vt 0.323526 0.090470
vt 0.356956 0.105553
vt 0.354638 0.056820
vt 0.322606 0.003480
vt 0.356903 0.000000
vt 0.320482 0.060691
vt 0.357683 0.086600
vt 0.643532 0.785416
vt 0.678205 0.752630
vt 0.786052 0.952510
vt 0.740641 0.962783
vt 0.843142 0.000000
vt 0.099841 0.452868
vt 0.643450 0.135342
vt 0.992490 0.228547
vt 0.951503 0.228547
vt 0.836662 0.118334
vt 0.345046 0.458552
vt 0.639673 0.433420
vt 0.553889 0.836199
vt 0.482659 0.812325
vt 0.953020 0.964088
vt 0.426727 0.586009
vt 0.643450 0.003518
vt 0.956923 0.881040
vt 0.602149 0.948945
vt 0.643450 0.542023
vt 0.844659 0.684180
vt 0.994007 0.582567
vt 0.426727 0.135342
vt 0.840562 0.463666
vt 0.650815 0.587179
vt 0.295834 0.443606
vt 0.518177 0.836199
vt 0.554083 0.836275
vt 0.807565 0.996485
vt 0.643826 0.748457
vt 0.764679 0.996948
s 0
usemtl Material
f 46/1/1 13/2/1 51/3/1
f 49/4/2 3/5/2 10/6/2
f 18/7/3 1/8/3 9/9/3
f 16/10/4 12/11/4 17/12/4
f 48/13/5 16/10/5 50/14/5
f 17/12/6 36/15/6 38/16/6
f 18/7/3 33/17/3 37/18/3
f 49/4/2 34/19/2 53/20/2
f 18/21/2 23/22/2 14/23/2
f 34/24/7 17/12/7 38/16/7
f 45/25/8 16/10/8 3/26/8
f 3/26/9 17/12/9 10/27/9
f 14/28/10 22/29/10 8/30/10
f 51/3/11 7/31/11 47/32/11
f 21/33/3 40/34/3 39/35/3
f 22/29/3 24/36/3 21/33/3
f 29/37/2 19/38/2 32/39/2
f 11/40/12 22/41/12 21/42/12
f 11/40/12 39/43/12 35/44/12
f 5/45/13 19/46/13 15/47/13
f 27/48/12 20/49/12 5/50/12
f 37/51/2 32/39/2 40/52/2
f 31/53/3 19/46/3 20/54/3
f 4/55/14 30/56/14 13/57/14
f 52/58/2 4/59/2 46/1/2
f 29/60/3 2/61/3 15/62/3
f 30/56/6 7/63/6 13/57/6
f 18/21/2 40/52/2 24/64/2
f 35/44/12 31/65/12 27/48/12
f 39/35/3 32/66/3 31/53/3
f 26/67/15 38/16/15 30/56/15
f 52/68/16 57/69/16 56/70/16
f 37/18/3 25/71/3 29/60/3
f 38/72/17 44/73/17 30/74/17
f 43/75/18 42/76/18 44/77/18
f 36/78/19 42/76/19 41/79/19
f 30/74/20 42/80/20 28/81/20
f 36/82/21 43/83/21 38/84/21
f 33/85/2 52/58/2 25/86/2
f 25/86/2 46/1/2 2/87/2
f 15/88/11 47/32/11 5/89/11
f 14/90/22 45/91/22 1/92/22
f 9/93/2 53/20/2 33/85/2
f 8/94/23 50/95/23 14/90/23
f 9/93/2 45/96/2 49/4/2
f 2/87/24 51/3/24 15/88/24
f 56/70/25 61/97/25 60/98/25
f 26/67/26 54/99/26 34/24/26
f 52/100/27 55/101/27 26/102/27
f 53/103/28 54/104/28 57/105/28
f 61/106/29 62/107/29 65/108/29
f 56/109/30 59/110/30 55/101/30
f 57/105/31 58/111/31 61/106/31
f 55/112/32 58/113/32 54/99/32
f 65/114/33 63/115/33 64/116/33
f 59/117/34 62/118/34 58/113/34
f 60/98/35 65/119/35 64/120/35
f 60/121/36 63/122/36 59/110/36
f 72/123/37 96/124/37 99/125/37
f 97/126/12 68/127/12 95/128/12
f 77/129/3 66/130/3 73/131/3
f 12/11/4 75/132/4 76/133/4
f 75/132/5 48/13/5 98/134/5
f 36/15/6 76/133/6 89/135/6
f 86/136/3 77/129/3 88/137/3
f 87/138/12 97/126/12 101/139/12
f 79/140/12 77/141/12 73/142/12
f 87/143/38 76/133/38 71/144/38
f 95/145/39 75/132/39 98/134/39
f 76/133/40 68/146/40 71/144/40
f 22/29/10 73/147/10 8/30/10
f 7/31/11 99/148/11 47/32/11
f 90/149/3 21/33/3 39/35/3
f 80/150/3 22/29/3 21/33/3
f 83/151/12 78/152/12 74/153/12
f 78/154/13 5/45/13 74/155/13
f 88/156/12 85/157/12 83/151/12
f 78/154/3 31/53/3 20/54/3
f 69/158/41 84/159/41 82/160/41
f 69/161/12 100/162/12 96/124/12
f 67/163/3 83/164/3 74/165/3
f 7/63/6 84/159/6 72/166/6
f 77/141/12 90/167/12 88/156/12
f 85/168/3 39/35/3 31/53/3
f 82/160/42 89/135/42 87/143/42
f 100/169/43 105/170/43 101/171/43
f 81/172/3 88/137/3 83/164/3
f 94/173/44 89/135/44 84/159/44
f 92/174/18 93/175/18 94/173/18
f 36/176/17 92/177/17 28/178/17
f 28/178/20 94/179/20 84/180/20
f 93/181/21 36/182/21 89/183/21
f 100/162/12 86/184/12 81/185/12
f 96/124/12 81/185/12 67/186/12
f 47/32/11 74/187/11 5/89/11
f 95/188/45 73/189/45 66/190/45
f 101/139/12 70/191/12 86/184/12
f 98/192/23 8/94/23 73/189/23
f 70/191/12 95/128/12 66/193/12
f 99/125/46 67/186/46 74/194/46
f 104/195/47 109/196/47 105/170/47
f 102/197/48 82/160/48 87/143/48
f 103/198/49 100/199/49 82/200/49
f 101/201/50 102/202/50 87/203/50
f 109/204/51 110/205/51 106/206/51
f 107/207/52 104/208/52 103/198/52
f 105/209/53 106/206/53 102/202/53
f 106/210/54 103/211/54 102/197/54
f 111/212/55 113/213/55 112/214/55
f 110/215/56 107/216/56 106/210/56
f 108/217/57 113/218/57 109/196/57
f 111/219/58 108/220/58 107/207/58
f 46/1/59 4/59/59 13/2/59
f 49/4/2 45/96/2 3/5/2
f 18/7/3 14/221/3 1/8/3
f 16/10/4 6/222/4 12/11/4
f 48/13/5 6/222/5 16/10/5
f 17/12/6 12/11/6 36/15/6
f 18/7/3 9/9/3 33/17/3
f 49/4/2 10/6/2 34/19/2
f 18/21/2 24/64/2 23/22/2
f 34/24/60 10/27/60 17/12/60
f 45/25/61 50/14/61 16/10/61
f 3/26/62 16/10/62 17/12/62
f 14/28/10 23/223/10 22/29/10
f 51/3/11 13/2/11 7/31/11
f 21/33/3 24/36/3 40/34/3
f 22/29/3 23/223/3 24/36/3
f 29/37/2 15/224/2 19/38/2
f 11/40/12 8/225/12 22/41/12
f 11/40/12 21/42/12 39/43/12
f 5/45/13 20/54/13 19/46/13
f 27/48/12 31/65/12 20/49/12
f 37/51/2 29/37/2 32/39/2
f 31/53/3 32/66/3 19/46/3
f 4/55/63 26/67/63 30/56/63
f 52/58/2 26/226/2 4/59/2
f 29/60/3 25/71/3 2/61/3
f 30/56/6 28/227/6 7/63/6
f 18/21/2 37/51/2 40/52/2
f 35/44/12 39/43/12 31/65/12
f 39/35/3 40/34/3 32/66/3
f 26/67/64 34/24/64 38/16/64
f 52/68/16 53/228/16 57/69/16
f 37/18/3 33/17/3 25/71/3
f 38/72/65 43/229/65 44/73/65
f 43/75/18 41/79/18 42/76/18
f 36/78/44 28/230/44 42/76/44
f 30/74/20 44/73/20 42/80/20
f 36/82/21 41/231/21 43/83/21
f 33/85/2 53/20/2 52/58/2
f 25/86/2 52/58/2 46/1/2
f 15/88/11 51/3/11 47/32/11
f 14/90/66 50/95/66 45/91/66
f 9/93/2 49/4/2 53/20/2
f 8/94/23 48/232/23 50/95/23
f 9/93/2 1/233/2 45/96/2
f 2/87/67 46/1/67 51/3/67
f 56/70/68 57/69/68 61/97/68
f 26/67/26 55/112/26 54/99/26
f 52/100/27 56/109/27 55/101/27
f 53/103/28 34/234/28 54/104/28
f 61/106/29 58/111/29 62/107/29
f 56/109/69 60/121/69 59/110/69
f 57/105/70 54/104/70 58/111/70
f 55/112/71 59/117/71 58/113/71
f 65/114/33 62/118/33 63/115/33
f 59/117/72 63/115/72 62/118/72
f 60/98/35 61/97/35 65/119/35
f 60/121/36 64/235/36 63/122/36
f 72/123/73 69/161/73 96/124/73
f 97/126/12 71/236/12 68/127/12
f 77/129/3 70/237/3 66/130/3
f 12/11/4 6/222/4 75/132/4
f 75/132/5 6/222/5 48/13/5
f 36/15/6 12/11/6 76/133/6
f 86/136/3 70/237/3 77/129/3
f 87/138/12 71/236/12 97/126/12
f 79/140/12 80/238/12 77/141/12
f 87/143/74 89/135/74 76/133/74
f 95/145/75 68/146/75 75/132/75
f 76/133/76 75/132/76 68/146/76
f 22/29/10 79/239/10 73/147/10
f 7/31/11 72/240/11 99/148/11
f 90/149/3 80/150/3 21/33/3
f 80/150/3 79/239/3 22/29/3
f 83/151/12 85/157/12 78/152/12
f 78/154/13 20/54/13 5/45/13
f 88/156/12 90/167/12 85/157/12
f 78/154/3 85/168/3 31/53/3
f 69/158/77 72/166/77 84/159/77
f 69/161/12 82/241/12 100/162/12
f 67/163/3 81/172/3 83/164/3
f 7/63/6 28/227/6 84/159/6
f 77/141/12 80/238/12 90/167/12
f 85/168/3 90/149/3 39/35/3
f 82/160/78 84/159/78 89/135/78
f 100/169/43 104/195/43 105/170/43
f 81/172/3 86/136/3 88/137/3
f 94/173/19 93/175/19 89/135/19
f 92/174/18 91/242/18 93/175/18
f 36/176/65 91/243/65 92/177/65
f 28/178/20 92/177/20 94/179/20
f 93/181/21 91/244/21 36/182/21
f 100/162/12 101/139/12 86/184/12
f 96/124/12 100/162/12 81/185/12
f 47/32/11 99/148/11 74/187/11
f 95/188/79 98/192/79 73/189/79
f 101/139/12 97/126/12 70/191/12
f 98/192/23 48/232/23 8/94/23
f 70/191/12 97/126/12 95/128/12
f 99/125/80 96/124/80 67/186/80
f 104/195/81 108/217/81 109/196/81
f 102/197/48 103/211/48 82/160/48
f 103/198/49 104/208/49 100/199/49
f 101/201/50 105/209/50 102/202/50
f 109/204/51 113/245/51 110/205/51
f 107/207/82 108/220/82 104/208/82
f 105/209/83 109/204/83 106/206/83
f 106/210/84 107/216/84 103/211/84
f 111/212/55 110/215/55 113/213/55
f 110/215/56 111/212/56 107/216/56
f 108/217/57 112/246/57 113/218/57
f 111/219/58 112/247/58 108/220/58
